/* XPM */
static char *_94108eac63a48f9ff54110aead973c6aShWPvD9mVRvbtTn[] = {
/* columns rows colors chars-per-pixel */
"63 63 16 1 ",
"  c #202020",
". c #2C2C2C",
"X c gray22",
"o c #484848",
"O c gray33",
"+ c #646464",
"@ c gray44",
"# c #7C7C7C",
"$ c gray55",
"% c #989898",
"& c gray66",
"* c #B4B4B4",
"= c #C0C0C0",
"- c #D0D0D0",
"; c gainsboro",
": c #ECECEC",
/* pixels */
"...............................................................",
"OOOOOOOOOOo;;;;;;;;;;;;;;;; X$&=------==&$O ooooooooooOOOOOOOOO",
"OOOOOOOOOOo;---=------=---$ X$=*$&$$$$$$&OX X@$$$$$$#@+oooooooo",
"$$$$$$$$ Oo;-=*-*-=*-==*-$+ X&;&$&$&$&$&$OX X$;;;;;;=*&$$$$$$$$",
"-;--*&$$ Oo;-&&&&$&&&&%&&#O X$=$$$&&&&$$@OX X$;;===-;;;;;------",
"&&&&&&#@ Oo:=%&&&&&&%&$&&@O Xo&$&&$$&$&@OOX X$;*&$&$&&&$$&$&$&$",
"*%&%&$#@ oo:-&$&%&$%%%$%&$O Xo#$$&$&&$&@XXX X$;*$&$%$$$&$$%%&%$",
"**#*$%+O Xo:-$%$&&&$#$%&$+O Xoo$&&&$$$&@XXX.X$;*&$%#&%#$&$&&$#&",
"%&&%%@oo .o==&%&$&$%$%$$&@O  oOo#XXXXXXXXX .X#;;$&$#%#%$&$%#&&#",
"$$$$@Ooo .o&:&&&$$%$$$$&$O#. XoXXXXXXXXX   ooo=-$$$%%%%$$&$&&$&",
"@@@@OoXX .o$;$&$%#$$&$&$&@O. XoX..     ....oOo=*$&$&$$$@@++++++",
"OOooo    .o@;&$%###&%$$#$@+X Xoooo@#$&&&&%@XOo*$@@+++OOOOoooooo",
"     ....XOo;-$$$%%$$&#$&$OX Xo@&&;;:;--%@O Oo$@++OoooXXXXX....",
".........XOo&-$&$#$&$$%$$@OX .X&=;-*$&$&$@X XXXXXXXXXXX..      ",
"XXXXXXXXXXOo$-&$&%$#$#$&$OOX .o&;=&$$$$$$OX X..........XXXXXXXX",
"OoXXXXXXXXOo@=$&%$&%&$&$&O@o .o&:&$$&$&$&OX XoOOOO oooooooooooo",
"%%%%%%%%%. Oo==%$$%%#$$$$@OO  o&:$$&&$&$$OX X@&;;OoO#%%%%%%%%%%",
"------**@X Oo$=$&$#$$$&$@$@o  o&-&&$$&$&$OX X&;=& o#=;;;;;;;;;;",
"&%$&$&&@@X Oo@%&$&&$&@$@O@Oo  o&-&$@@@@OOOX X;=&$ o%;-*********",
"&$&$&$$@@X oOo%%@@@@OO@O@Oo.  .&$@$@XXXXXXX +;*$$ o%;*&%&%&$%$%",
"&%$&$&&@OX oOo+OOOOoooX.      .$@XXX        +;&&$ o%;&$%$%$%##$",
"&$&$&$$@OX oOo....            .XOX    ......$;&&$ o$=$&%&%&$%$%",
"$&##$$&@OX XOOoX        ooooooo$$%&&%$$#O.X+=;&$# o$=&$%$%$%##$",
"$$##$&$+oX X$;;;;=*&$+Xo+#&&==-;;;;;;;-%+ X#;=&&@ o#=&%$&$&$##$",
"$$&&$$$+oX X;=&%%%&%%XOo#-::;=*========@O X$;*%$@ o@=$&%$%$$&$&",
"%&$$&$@OXX X;&$%&&%%& Oo%:=$&$&%$&%&%$$+o X$:&$&O oo$@+OOO++@#$",
"+++++OoXXX X;&&&$&$&+ oo%:&&&$#&&$$$&$&Oo X$:&&%O O XXoooooooOO",
"OooXXX    .X;$&$&*$#+ oo%:$&$%&$$#$&%$$Oo X$:$&$O OX         XX",
"      ...ooo;&%$&$&#+ Xo%:%$&$$#$#$$$&$Oo X$:&&$O OXXXXXXX...  ",
"o++@$%$$$$o ;&#%$&$#+X o%:&$$$#$#$&#$$&Oo X$:%&&O OoooOOOOOOOXX",
"+$*;;;---&@ ;&&$#$&$+X o$;=%$&$&##$#$&$OX X$;$$&O o&;;*$+Oooooo",
"+*--=*&&%&o :%%&#$&%@o o#-=&$$#$##&$&$#OX.X$;&%$O o;$$*;;;;;;%X",
"+;*&&$&%&$@ :%&%&&$&@o XO=:&&%$&$&##$&@OX.X$;$&$O o;$$&&$$&$$#X",
"+;*%$&$&$&@ :%$%&$&$+O .O&:&&&$$#$##&$@o..o$-&&$O o;&&$$&&$&$+X",
"+;&%&$&&#&O ;&&&%$%&+O .O$:=&$&$$%$&$&+o .o$-&$&O o-&$&&$$&$&+X",
"+;*&$$&%&$O ;=#%#&&%+O  o@-=&$#%$$%$%$+X .o$-$&OO o=&&&$&$$&&OX",
"+;*$&&$&$&O =;$%&$%$+O  oO*;&$&$&$&$$+OX Xo#&#OXXXo&&$&&$&$$&OX",
"+;*&&$&%&$O *;#&$$$&@O  XO$=&$#++OooXXXX XoOXXXXoo @OoOOOOOOOOX",
"+;*$&&$&#&O %;%#&&$$@O  XOo$$+OoX        XoOooOOOOO            ",
"+;*$$%&$&$O #;&%&$$&+O  .ooX...  ........XoOOoooooooooXXXXXXXXX",
"+;*&&$%&%&O O:$&$$&$+O  .oooXXXXXooooooooooOO#################X",
"+;*$$&$&$@O o:&$$#$&@O. .X+#############$$%%&**======*=======#X",
"+-*&&%&$&O .o:&$&$$$+O.  X#===============-;;:::::::::::;;--%+.",
"+-*%&$&&$O .o:$&#%$&+OX   #=-::::::;::;::::::;;-=*===&==*==*#O.",
"+=*&$&$$$O Xo;&&$&$$+OX   #=-*=====&==&===**&%%$$&$&$$$&$&$&@O.",
"o=$$&$@@@O Xo-$$&$&$@OX   +=;*$$$$$$&$&&%$%&&&%#%$&&%$&$&&&$@O.",
"o*&&&$OOO .Xo*&$$&$$@OX   o=;=$%$&$&$%&$$%&&$%$%$$#$%%$&$&$&@O.",
"o###OOOOO .Xo%%&$$$@+OX   .*;-&&$$$$#$$&$%$&%#$$&$$&$##$#%$%@O ",
"oX   OOOO Xoo#++++++OOX   .&;-$$&$&$$&$##%%$&$&%$&$$#$$$&$##@O ",
"OOOoX  . .XoXXXXXXXXXXX   .$-**$$&$&#$$%#%$%#&$$#$$$$&$#$%##@O ",
"ooooooo...XoXX            .$%@@@@@@@&$&&$$#$$$#$$&$&$$&$$$$%@O ",
"o#&&&&%$+ooOXX............XOoXX.....O@@#$###################+O ",
"o&=;;;;;=&&$@+OoXXXXXXXXXXoOooXXXXXX.oOOOOOOOOOOOOOOOOOOOOOOO .",
"o&;&&$=-;;;=&&&&&&&&$$$##@++OOoooooXX.............           .X",
"o&;&&&**$&=;;;;;;;;;;;;--==&&&&&$oOoXXXXXXXXX...............XXo",
"o&;&$&##&%$#&$&$&$&&$&$&&*=;;;-=#XoOoooXXXXXXXXXXXXXXXXXXXXXooo",
"o&-&&&%&$%$%&$$&##$&#$$$&$&$&&&#+ XOo&;;&#oooOOOooooooooooooOOO",
"o&=&$&##%&$&&%$#&#$#%$&$&$&$&&&+O Xoo;&&;;;;*OOo*;;;;;;;-=*%#oo",
"o&$++++++++++++++++++++++++++++OOX Xo;*******+O#;&&&$&$&%&$&;% ",
"o$+XXXXXXXXXXXXXXXXXXXXXXXXXXXXXXX .o*&**%+%$+o*&$&$&&&$&$&$&O ",
"oX                                 .oXoXO+++++o;&%%&&%%&%&&$$O ",
"OoXXX...............................XOOXX     XOOOOOOOOOOOOOOO ",
"OOOOooooooooXXXXXXXXXXXXXXXXXXXXXXXXXOOOOXXXXXXOO              "
};
