/* XPM */
static char *e68b1f87a4a14d03c59aa3cb2c30908avMpVwxFqGlt6zRVM[] = {
/* columns rows colors chars-per-pixel */
"70 63 26 1 ",
"  c #202020",
". c #2C2C2C",
"X c gray19",
"o c #343434",
"O c gray22",
"+ c #400000",
"@ c #4C0000",
"# c #580000",
"$ c #640000",
"% c #700000",
"& c #7C0000",
"* c gray25",
"= c #484848",
"- c #4C4C4C",
"; c gray33",
": c gray36",
"> c #646464",
", c #880000",
"< c #980000",
"1 c #A40000",
"2 c #B00000",
"3 c #BC0000",
"4 c #C80000",
"5 c #D40000",
"6 c #E00000",
"7 c #EC0000",
/* pixels */
";O;=====;======;=O=======;;;;;;=========;;;;;;;====OOO==;;=====OO O...",
"O775555555551==;775555555555555555551=O;77776666665555544443331= 44441",
"=74225,15,41$.=;73,3,3,3&3<3<3&3&341%.=O51424224%4&424,21&4<41&..42<<3",
"=51&1,1<%1,%$.=;53,,1,%11%<11%<1%1<%#.=;511&$1,%,1&,11,1&,1#1%$..2,$,%",
"=5&11%<11%1#+.=;5,31,1%1,1%1%,&1%<&%#.==5%1$,1$1%1&1,1$1<&1&1%@..2$,,#",
"=41&,<&1%,1%+.=;33,1,,<1%,%1,%<&,%1%+.O=3%1&1,$1%%11%1,11&1#1,@..2,$%&",
"=3&11%1<%<%#+.==34,1%1%1%1%<,%&1%<&%#.O=3<1$,1&,%,&1,1$1&,1&1%+..&$,,#",
"=31%,#%&#%,%+.O;<<%%@,%%,%@%,%,%@,%%+.O=3%%#%%@,@%#,@%@,$@%,%,+..&,#%@",
"=&$$$++++++++.O=&$$#########+++++++++.O=,$$$$$$$$$$#########+++..$@@@@",
"==........   .O;=.....     ..    .....=;O...........     .........    ",
";OOOO====OOOOO=O=======OOO;===OO======;O=;;;;:>>:;;==*O*;O;===;OO    .",
"7555333333333331=;=7755555544444443333333333333333331=*;77555555222111",
"2,,2<&2&<,2$2,1+O=;7%24&3$,3,,4<1,&,1,1,1&4$4,<34<41+O=O74&2,2,2<%%<&$",
",1,1&,,$1,$,11%+.==52%1&11,1$1%$,1&1&1$11,$1,1%,1%1%+O=;42&1,&1<%,%,$%",
"%11,<$1&,,<$1,%+.O=5%1,<,,$,,%1,$1,&$&,,1#,&1%1%11%%+.*=4&111&1&#,,%&@",
"1,,1,&&,&1<$1$%+.O=5%11&1$,1$%1$,1&,&1$1,#1$1%,%1%1%+.O=42&1&1<&,%%,%$",
"%1$1%,&<$1$,11%+.=;52#1&1,$,#,%$1,&#&1$,#,1$,1%,1%1%+ O=2&11#1&,#,@,#%",
"%2$%@&%<%<%#<%%+.=;21%,#%<%,$%,#%<%<$,%,,#<%%,@%<%,%+ *;21&%#%<%#<@#@$",
"+@@@@@@@@@@@@+++O=;1$$$$$$$$$$$$$##################++ =O1$+$++$+@#@@@@",
"... ...   ...  .O=O=Oo......ooOOo...     ...    .....O=;=.......      ",
";;=OO=;O;O==OOOO==;===*O*O*O*===;O;=*OOO**==;*OO*===;=;O;*O*;===OO.  .",
";775555555333333333333333331=;;77555555555533333333333333333331=O33322",
";7,23&3&3&2,2,24,2,2,32$24%+O=;73%512,12,2<2&$1,%,1&,1<,1&,1#1+.O2%<1$",
"O72,1<1&%,11,<,1,$1%1,$,1%2+.=:53<1$1$,%<,$1$,1$1%1&1,1$1<&1&%+. 2<%,&",
"=3$11%,#1$1%1,<1$,1%,1,$&1%+.;>53&1&1$1%<1&1&1,$1%%1<%<,11&1#%+..2@,,#",
"=32,1@1#%,1,%&1&,$&1$1,$1%#+.;:5%1%<,$,<%1$,$,1&,%,&1,1$1&,1&%+..2<%,@",
";3%$1@,&1$1#1$1,$,1,$1$,&&2+.=;54%1%1,1,%1$1#%%@1@1#1@11,$@%,%+.O2#@,@",
"=41$%%%#%@%%,$,%%,%%$%<%<%%+.O;41%<%,#%%%%$,%,@1#%1@%,@1#1@1%%+..2,@##",
"=1<$$$$$$$$$$$$$$@@@@@@@@@++.O;1$$$$$$$$$$$$$$############+#&#+..,&@@@",
"==O.................OOO......===........     .OOO.   .............    ",
";;;;;==O=OOO=;>>;;;===**OO*OO*;===;O;=;=*O*O*=;;==*O*===;O;===;OOOOOO.",
"33333333331=O;55555555333333333333333331=;;475555555553333333333111<<<",
"1212<42241+O=O51$1%11$1,11%1,$11$11%1&1+O=;51&1%11$1&,&1%1,1&1%1,<,<&2",
"1&,1<1&1,%+.=;5$1&,1&1<%1,,%,,1,$1%,1$1+O;;51#1%1,$1,1&,,<%<&<,%,$%,&,",
",&1<&1&<1%+.=O5$11&<1%1%1,1#1@,,1,%<1&1+O;>51&1%1,1,11&1%<,1<&1%%$,&$,",
"1,&1<1<&,%+O=;5<$1&1&#<,,,%,1$1,$,<%,1&+O;>5&11%1$11&&1&1,<<,&%,,%$,&,",
"1,&1&1&<1%+O==5$1&#<1%,,1,1%,@$<$1<%1&1+O=;41&11%1,,&1&1%<,1&,1%,%$,$,",
"%%,<%%<%%%+O==<$11#1&%1%1$1#,$1,$<%<1$&+.=;41#1%11,1,1&1%<%<&11%##%&##",
"++@@@@@@@++.==1$$$$$$$$$##############++.==1$$$$$$$$$$$$$$$####+@@@@@@",
"............=;=.    ..OOO.     .........O===....OO=O..   .......      ",
";=;O=OO==OOOO==OOO=====;;==OOO;===;O=O=O==;=;O;=;:>;-==O;=;=;O;OO.O . ",
"O7555555533333333333333333333331O;O7755555555333333333333333331= 33222",
";51,,1$11&<1&1%,1$1&1,1$1$11&%1+O=;711$1$1#1%1#1,#<,%1,&1&<%,1+.O3,%%,",
"=51$1,$1,<&1$,#1<$1#,<,$1&1&1%<+.==5,1$,$&#,#<&1#1$1%,%1,&<1$,+..2,@,%",
"=5,$1$,%$1$1,&,1$<,,#&1@<#,$,,%+.O=5,1$$,1&#1&#<1#1%%1%1&1%,$1+..2%@,@",
"O51,1,$1,&<1&1#,1$1#,1#<1&111%&+.O=51$1,$1#1%<&&#,$1&,<,<&%1,1+. 2,%,%",
";51$,1$1$1$1$1%1$$1#,&1&,$<$,%1+ O;51$$1$&#1#1#<#1$,%1%&1&<,$%+.O2,@%,",
"O41$1$,%,<&1,,,1<$,&#$1@1%<&1%1+ O;4%1$,$1#&1&#<%,$1%1%1&<%1$1+. 2,@,@",
";1$$$$$$$$$@@@@@@@@@@@@@@@@@@@@+.=;1$$$$$$$$$#####@@@@@@@@@@@++.O,@@@@",
"O=..........OOO.    ...    ..  ..=O=......   .oOo. ....   ...... .    ",
";O;O;=;====;>>;=;O;=;=*OOO*=;==O==;O;========-;;;-====OX  XO==;=O O O.",
"555553333333333331=;=77555555553333333333333331=O;75555533333333111111",
"&1#11$<$1&4&1$1&1+.==51111$1@1&1$1$1<1$1$1#1%$+O=;51$,1#1%1%1$1%$,@,,@",
"1&&1&1$<&$1#&$,$,+.==5&1%1$%@&<&1,$,<$&,%,#1$1+o=;5$1#1%1%,1%1,@,$$,$,",
"1&#&1$<$&1&#1,$<&+.=*5&&%1$&&1#1@11$1$1$,#,,$%+.=;5$1%%11,%,%$%,,$@$,@",
"&<#<$$1$1&1#&%$1$+.=*51@%1$1@1&<$1$,&$1$1,#%<$+.=;51$#1,%%1%1$%1$&@&@@",
"$1&1$1$,1$1&#,1&,+.=*5@11$1&%,#&@1$1$&&$,%#,%$+.==5$1,1%1,%%#1%1@,$,@,",
"$1&&$<<$<$&#1$1$<+.==5@1%1$&&,@<$,@1&$1,$1#1#,+.O=5$1#%#1%1%#$1@@,$$@&",
"&<#1$$,$&&1#1$%,&+.=;41@%1$1@,$1$1%$1$&1$,%,$,+.O=4$$#1#1%1%1$1%$&@,@@",
"@@@@@@@@@@@@@@@@++.==1+++++@@@@@@@@@@@@@@@@@@++ =;1++@@@@@@@@@@@@@@@@@",
"...................=;=Ooo..............     .   O==......     ..      ",
"O;O;OOO=====;;O====;;;;;===;===;==O===*OO*OO*=*O*;==O;====*O*=== O O  ",
";;;;;;;;;;;;;;;;;;;;;;;;;;;;;;;;;;;;;;;;;;;;;;;;;;;;;;;;;;;;;;;;======"
};
