/* XPM */
static char *bc8cffb2293342b1a08625834bb67453bDcibinJOjZ2Jggw[] = {
/* columns rows colors chars-per-pixel */
"66 63 20 1 ",
"  c black",
". c #00002C",
"X c #202020",
"o c #2C2C2C",
"O c gray22",
"+ c #000040",
"@ c #00004C",
"# c #000058",
"$ c #000064",
"% c #000070",
"& c #00007C",
"* c #000088",
"= c #000098",
"- c #0000A4",
"; c #0000B0",
": c #0000BC",
"> c #0000D4",
", c #0000FC",
"< c #2024FC",
"1 c #4040FC",
/* pixels */
"O%%%%%%%%%%%%%%%%%%%%%%%%%%%OO%%%%%%%%%%%%%OO%%%%%%%%%%%%O%%%%%OO$",
"X=====================***&%% X========*&&&& X========&&$# ----* X$",
"X===&=%==*%**%***%%=&%%%%$#@ X==**&==*&&&&@ X=;-;-;;;;;*% --&*&  $",
"X=*%&***%%=*=#**#&%%**%%$##@ X=*==&**%&%=$@ X=-;;=;:-;=*% ==-*@  $",
"X=&=$*$*%%%*&&%#&$*#%$##@@@# X=*&&**%&%$@#@ X=;-=:;-=*&&$ &$%%@  $",
"X=&%===#%%%=***&&%$#%%%$$#@# X==&==%$$$&#@@ X=;=:<:=;=*$% *&$#@  $",
"X=**--===*===**$&@%#%%%%$@@@ X===&&%$&&&$#@ X=-;=;;==-%%$ *%@@@  $",
"X==*=--=*%#==*&&%$$$#%%$#@## X==&%&&&%&%#@@ X=-;-=---=%$% *#@#@  $",
"X=*%*==&*%*$$&&&##%&@$$$##@@ X=*&&$&==%$%@# X=-:--&&==*$#        $",
"X=&&&=%%%==$@#@$@&$%$#$$#@@@ X=&&$%%&&$#@#@ X=-;=-&&&*&#@ *---=  $",
"X*%&=&&$*==$$@@@$#%$#$%%$@#@ X*&%$$&&$%#@#@ X=-;;=&&&&%## =-*-&  #",
"X*&*%%=&#%@%@@@@##&++@%%%@@@ X*&%$$$&@$@$@@ X=-;;-=&&*%## *=&*#  #",
"X*%*%#&&%#%#%#@$@$@+++@$$@#@ X*%&$$##$#@##@ X=-;;=**%&$@@ *=*$@  #",
"X**%%%$#@@#%#$##@@@@++@@@@@@ X&&$$#@@@@#@#@ X=-=;&*&*%%@# &&%#$  #",
"X*%*##$#%#$@@#@####@@@@@@@@@ X&#&##@@@@@@@@ X*;-;;&=&$#@@ %$#@@  #",
"X                            X              X*;-=**&&#@#@         ",
"=;-=-=====-====XXXXXXXXXXXXXXXXXXXXXXXXXXXXXX*-;*;%*%%#@@ $:::::$&",
";-=*=;-=&==%=*% XX#%*%**==%%@@++XXX@$**=&%$$X*;-;**:*%$#@ &::>;:&%",
";-**&==&%**%%** X#%****=-==&#$$#@XX$*=%&%&%# **=-;**%%$@# =:>,>-&%",
"-=*--**%%%*%%%% X***-=--%&*#$#@#$XX%=%$#%#@% &--;-*&%#@## =::>-:%$",
"=&*-;-%%**%*@%% +-*-&-=%@$%$@@#$% X&&=%$$@$# &;--$$&%$##@ -::-=-$@",
"==&*--%*%%##$%% +==--=-*$%$@###@$ X$=&&#@%@@ %===$$$%$@@@ ;::-:=$$",
"-&%&*=*%%*#$%@@ @=--=:*&%$###@$$@ X$$#@@#@## %*==&$$$#@@@ -:-;-=%@",
"-=&*%*%**%$%#%@ $*==&%&&$$%$#$@@$ XX         %**;%%$$$@#@ -:-=*;%$",
"--*&-****%%$@@@ $*=&%*&$@$$*$%$%$ ==;;==**& X**=**%$$@#@@ =::-::%%",
"-=&%&--#%*&&$@# $*&%-=*%$%&:-&$#$ =;;=*&$&% X*;-=*%%$###@ =:-:;-%$",
"=*%&=--=*%&&$@# @&&%*-**&&*-&%%$% =*==&$=$# X=;-;=*&$#@## =:::-=$#",
"-*-**=-=#%$$$@@ +%%&-1-&=*%*&$&#% ==*%&=&$$ X=-=;=*%$##$@ &:::--%#",
"=&&==*==#$@#@@@ +%%&*-==*==&*%@%@ ===*=$$&$ X==*=&*&%@@@# &:-::=$@",
"=*&===*%$#@#++@  %&*=&=&=-$-$@#$@ =:-=&$### X=*=&%%%%@@@@ &::;--$#",
"*&*&==%##@@@++#  #%%*%*=*=-$@#%@@ =*-=&$$$# X=*;=*&$$@$@@ &::-*=#@",
"*&&%&&%##$%%#@# X@#%%%%*=$%*$%@@@ =**=%##$@ X==-;=&$#%%@@ &:-:-*#@",
"*&=*$%%$#$%%#@@ XX+@@@@@@@@@@@@@+ =*=#$%$#@ X==--==*%#%#@ &:-:&&#@",
"*=*&&%##@#$$#@@ XXX               ==&%###@@ X=;;=****&#@@ &::&*&#$",
"%**&%%%%@#+@@#@ XX######$$$####@XX=&&$@@#@@ X=;;=*%**&%$@ $:-:**+#",
"%&&%$%%%@+++@@@ XX#$%**%*&&%%##@ X==&%#@#@@ X=*;*;%$&%$#@ $:-**&+@",
"%&#$%#%%@++++#@ XX#%**&*%$&$$&$@ X==%*$#@@@ X===-**$$###@ $--*&&+@",
"%*%#%#$@#+@++@@ XX#*&$**$&$@$*$$ X==*=%$#@@ X=;=**$@@$@@@ $-*&*&+#",
"%&*&$%$@@@+++@@ XX#*%*%%*$&#@$$@ X=*=*&%$## X=;*=*$#@@$@@ $-***&+@",
"%*&%#$%$@@#@@## XX#&**%$#@#@@#@@ X==&%%$##@ X*-**%%$##@@@ $***%*+#",
"                XX#*&%#@@#@@$$$@ X**%%#$@#@ X*=*%@%@@#@@@ X       ",
"XXXXXX@@$$&&&%$#@@X              X*=%#$$@@# X&%@#@$$#@@@@ X$$$$X  ",
"XX*=-;;;;;;;;;;;;---==**%XXXXXXXXX**%$#@@@@ X&%##@@@@#@$@ X$@%@X  ",
"XX=;;;;;-=-;===;==--%&&&# X@@##$XX*%&$@@@@@ XX            X@@@$X  ",
"XX=;--=--;;;*=;;;-=&-#%@# X@*&-% X&%&#$#@## XXXXXXXXXXXXXXXXXXXX  ",
"XX;;;--;;**=;;*-&=**%&#@# X@=-*@ X%%#$#@@@@ XX;;;;;;;;;;;;;---=X  ",
"XX;=-=---***;=&&=%***%$@@ X#--=& XX         XX;;;;--==---==-;=&   ",
"XX;;-*&--=**=;;===%**%@@# X#=&$@ X&*=-===*&&XX;--;-=::=-=*;;**&   ",
"XX;;*=;-&=---%==,=*#$#@#@ X$*$@@ X*=-=*-*-$$ X;;--=;;:%%*&%*$&%   ",
"XX;;;;=&;&-%%=&==*%**%### X$&#@# X=--=&%&$@# X;-;-=--=%%%*=%%%$   ",
"XX;=;*==;-*%%%==$%*%%#@%@ XX     X*=&&%$@#@@ X;;->>=*=*%%=&&*#@   ",
"XX;-**;>;=&=%%==&&%*$$#@@ XXXXXXXX           X;-=>>:;-=*-%$**#@   ",
"XX;=;=>1>**=*&%&&&&%++@#@ X***=======***&&$$XX;-=*::=*%*%&**%#@   ",
"XX;-;-;>;=%==###%&&$+++@@ X*=*&=&*==&*=%%$$@ X;==-*&*&=&%&=&$#@   ",
"XX;=;---&&&%$####$$$@++@@ X**&&&===-*&&&#$@@ X;;=**&&%&***&$#@@   ",
"XX=;--=%%*=**%####$#@%@@@ X=&==-*=*===*&%$@# X;-=*%%%$%&*%#@#$@   ",
"XX;=;-&&-%==*$%@$%%@#@@@# X==&=*&%&*==*&%@## X;-;-=&$@@%$@@++#@   ",
"XX;=;=*&%#&==*$#@%%%@#@#@ X*&=*&=%&***&%$#@@ X;;==%%*@@#$@@+++@   ",
"XX-=&&&=#&#&**$$#%%%@@$@@ X*=&%%%&$%%&%$#@@@ X-*=*;*%%#$@$@@++@   ",
"XX-=$#&#=%%*@#@@#@%%@@##@ X&*=%$%#%$%$$$@##@ X-;=%*$$%@#@@@###@   ",
"XX==&&#&@#@#$#$#$@@@@@@@@ X&*&%$#$$#@$@@##@@ X=%*%&*%$#@#@#@@@@   ",
"XX=*%&*$$$$$$############ X&%$$$$$$######$#$XX=*%&%$$##########XX.",
"OO%%%%%%%%%%%%%%%%%%%%%%%OO%%%%%%%%%%%%%%%%%OO%%%%%%%%%%%%%%%%%ooo"
};
